<svg xmlns="http://www.w3.org/2000/svg" width="22.479" height="12.959" viewBox="0 0 22.479 12.959"><g transform="translate(0.01 -0.002)"><path d="M-775.63,2192.24l-4.092,12.808h-2.8l-2.211-8.284-2.211,8.284h-2.8l-4.091-12.808h3.177l2.287,8.793,2.16-8.793h2.948l2.16,8.793,2.287-8.793Z" transform="translate(793.826 -2192.238)" fill="#adadad"/><path d="M-726.841,2223.21a2.087,2.087,0,0,1,1.525.61,2.085,2.085,0,0,1,.61,1.525,2.085,2.085,0,0,1-.61,1.525,2.083,2.083,0,0,1-1.525.61,2.085,2.085,0,0,1-1.525-.61,2.084,2.084,0,0,1-.61-1.525,2.085,2.085,0,0,1,.61-1.525,2.087,2.087,0,0,1,1.525-.61" transform="translate(747.174 -2214.52)" fill="#adadad"/></g></svg>