<svg xmlns="http://www.w3.org/2000/svg" width="15.328" height="15.336" viewBox="0 0 15.328 15.336"><g transform="translate(0 -0.001)"><path d="M7.669,1.38c2.049,0,2.292.009,3.1.045a4.2,4.2,0,0,1,1.423.264,2.374,2.374,0,0,1,.881.572,2.4,2.4,0,0,1,.575.881,4.22,4.22,0,0,1,.264,1.423c.036.809.045,1.052.045,3.1s-.009,2.292-.045,3.1a4.2,4.2,0,0,1-.264,1.423,2.368,2.368,0,0,1-.572.881,2.406,2.406,0,0,1-.881.575,4.223,4.223,0,0,1-1.423.264c-.809.036-1.052.045-3.1.045s-2.292-.009-3.1-.045a4.2,4.2,0,0,1-1.423-.264,2.373,2.373,0,0,1-.881-.572,2.406,2.406,0,0,1-.575-.881,4.223,4.223,0,0,1-.264-1.423c-.036-.809-.045-1.052-.045-3.1s.009-2.292.045-3.1a4.2,4.2,0,0,1,.264-1.423,2.379,2.379,0,0,1,.572-.881,2.4,2.4,0,0,1,.881-.575,4.22,4.22,0,0,1,1.423-.264c.806-.036,1.049-.045,3.1-.045Zm0-1.38C5.587,0,5.327.009,4.509.045A5.6,5.6,0,0,0,2.648.4a3.737,3.737,0,0,0-1.36.887A3.755,3.755,0,0,0,.4,2.645,5.616,5.616,0,0,0,.043,4.5C.009,5.326,0,5.586,0,7.669s.009,2.342.045,3.161A5.6,5.6,0,0,0,.4,12.69a3.743,3.743,0,0,0,.887,1.36,3.748,3.748,0,0,0,1.357.884,5.616,5.616,0,0,0,1.86.357c.818.036,1.078.045,3.161.045s2.343-.009,3.161-.045a5.6,5.6,0,0,0,1.86-.357,3.92,3.92,0,0,0,2.241-2.241,5.616,5.616,0,0,0,.357-1.86c.036-.818.045-1.078.045-3.161s-.009-2.342-.045-3.161a5.6,5.6,0,0,0-.357-1.86,3.6,3.6,0,0,0-.878-1.363A3.748,3.748,0,0,0,12.693.4a5.616,5.616,0,0,0-1.86-.357C10.013.008,9.752,0,7.67,0h0Z" transform="translate(0 0.001)" fill="#adadad"/><path d="M11.721,7.781a3.94,3.94,0,1,0,3.94,3.94,3.94,3.94,0,0,0-3.94-3.94Zm0,6.495a2.555,2.555,0,1,1,2.555-2.555A2.555,2.555,0,0,1,11.721,14.276Z" transform="translate(-4.051 -4.051)" fill="#adadad"/><path d="M24.464,6.457a.92.92,0,1,1-.92-.92A.92.92,0,0,1,24.464,6.457Z" transform="translate(-11.78 -2.882)" fill="#adadad"/></g></svg>